# xmcd
#
# Track frame offsets: 
#        150
#        27371
#        39746
#        48319
#        73920
#        87336
#        117120
#        127891
#        146116
#        158995
#        177106
#        207399
#        213554
#        223020
#        234906
#        253750
#
# Disc length: 3691 seconds
#
# Revision: 4
# Processed by: cddbd v1.5.2PL0 Copyright (c) Steve Scherf et al.
# Submitted via: ExactAudioCopy v1.0b3
#
DISCID=f00e6910
DTITLE=Falcom Sound Team jdk - VM JAPAN ORIGINAL SOUNDTRACK DISC2
DYEAR=2002
DGENRE=Soundtrack
TTITLE0=さだめ集いて
TTITLE1=神無島
TTITLE2=邪
TTITLE3=妖星悲譚
TTITLE4=幽玄の宴
TTITLE5=宵闇幻魔儚きかな
TTITLE6=ぶいえむ音頭
TTITLE7=猛者の咆哮
TTITLE8=月夜に我独り―戦場仕様―
TTITLE9=乱世の覇者
TTITLE10=されば別れの時に候
TTITLE11=終日(ひねもす)のたりのたり
TTITLE12=静かなる激戦―華緒数応打―
TTITLE13=曲者を討て
TTITLE14=熱砂
TTITLE15=妖星悲譚―天竺編―
EXTD=
EXTT0=
EXTT1=
EXTT2=
EXTT3=
EXTT4=
EXTT5=
EXTT6=
EXTT7=
EXTT8=
EXTT9=
EXTT10=
EXTT11=
EXTT12=
EXTT13=
EXTT14=
EXTT15=
PLAYORDER=
